<?xml version="1.0" standalone="no"?>
<!DOCTYPE svg PUBLIC "-//W3C//DTD SVG 1.1//EN" "http://www.w3.org/Graphics/SVG/1.1/DTD/svg11.dtd" >
<svg xmlns="http://www.w3.org/2000/svg" xmlns:xlink="http://www.w3.org/1999/xlink" version="1.1">
<metadata>
Created by FontForge 20200511 at Sat Apr 25 16:28:08 2015
SIL Open Font License OFL
https://open-foundry.com/fonts/bagnard_sans_regular
https://github.com/dconstruct/Bagnard
</metadata>
<defs>
<font id="Bagnard" horiz-adv-x="833">
    <font-face
        font-family="Bagnard"
        font-weight="400"
        font-stretch="normal"
        units-per-em="1000"
        panose-1="0 0 0 0 0 0 0 0 0 0"
        ascent="800"
        descent="-200"
        x-height="479"
        cap-height="718"
        bbox="-24 -271 1131 969"
        underline-thickness="0"
        underline-position="0"
        unicode-range="U+0020-20AC"
    />
    <missing-glyph horiz-adv-x="500" d="M50 -225v975h400v-975h-400zM100 -175h300v875h-300v-875z"/>
    <glyph glyph-name=".notdef" horiz-adv-x="500" d="M50 -225v975h400v-975h-400zM100 -175h300v875h-300v-875z"/>
    <glyph glyph-name="Yacute" unicode="&#xdd;" horiz-adv-x="734" d="M376 789l155 148h127l14 -31l-279 -135zM449 0h-140v271l-244 447h158l202 -369l211 368h70l-257 -431v-286z"/>
    <glyph glyph-name="yacute" unicode="&#xfd;" horiz-adv-x="526" d="M375 723l3 4h107l14 -30l-219 -165l-17 18c17 25 85 137 112 173zM254 -71c-63 -124 -112 -151 -206 -151l1 30c78 0 147 132 158 152l24 55l-213 464h130l146 -324l145 324h60z"/>
    <glyph glyph-name="space" unicode=" " horiz-adv-x="300"/>
    <glyph glyph-name="exclam" unicode="!" horiz-adv-x="293" d="M161 219h-29l-65 420c-1 6 -2 12 -2 19c0 45 36 82 81 82s82 -37 82 -82c0 -7 -1 -13 -2 -19zM61 62c0 11 71 86 85 86c15 0 86 -73 86 -86c0 -16 -73 -86 -86 -86c-11 0 -85 73 -85 86z"/>
    <glyph glyph-name="dollar" unicode="$" horiz-adv-x="640" d="M196 572c0 -57 31 -84 90 -112v217c-50 -10 -90 -54 -90 -105zM340 -64h-54v61c-52 6 -93 24 -125 47l-79 -55l3 339c61 -155 121 -254 201 -274v249c-15 6 -30 12 -43 18c-44 21 -163 82 -163 207c0 128 91 190 206 203v52h54v-50c45 -3 96 -24 132 -48l79 56l-2 -341c-78 181 -115 263 -209 277v-240c17 -7 35 -15 54 -23c78 -39 166 -93 166 -221c0 -107 -80 -194 -220 -199v-58zM439 160c0 57 -46 93 -99 119v-228c57 7 99 41 99 109z"/>
    <glyph glyph-name="ampersand" unicode="&#x26;" horiz-adv-x="804" d="M284 481c12 -11 28 -26 47 -43c46 44 72 96 72 136c0 77 -38 120 -87 120c-51 0 -88 -40 -88 -94c0 -50 23 -88 56 -119zM322 51c68 0 121 55 153 99c-81 70 -152 133 -228 201c-49 -45 -66 -95 -66 -159c0 -76 51 -141 141 -141zM540 0l54 48c-30 25 -58 50 -85 73 c-46 -63 -113 -132 -235 -132c-148 0 -229 76 -229 183c0 99 79 171 173 205c-5 5 -9 9 -14 13c-41 37 -92 91 -92 172c0 91 88 178 203 178c112 0 185 -63 185 -159c0 -67 -53 -130 -137 -172c51 -47 115 -105 176 -160l86 150l-71 80h116l-1 -3l2 3h113l-92 -65l-121 -194 c75 -67 140 -127 161 -148l88 -72h-280z"/>
    <glyph glyph-name="parenleft" unicode="(" horiz-adv-x="387" d="M325 822l32 -36c-113 -126 -156 -313 -156 -467s43 -341 156 -467l-32 -36c-142 124 -245 317 -245 503c0 189 113 392 245 503z"/>
    <glyph glyph-name="parenright" unicode=")" horiz-adv-x="387" d="M30 786l32 36c132 -111 245 -314 245 -503c0 -186 -103 -379 -245 -503l-32 36c113 126 156 313 156 467s-43 341 -156 467z"/>
    <glyph glyph-name="comma" unicode="," horiz-adv-x="301" d="M146 -29c0 25 -19 35 -27 36c-10 6 -49 21 -49 75c0 43 34 80 85 80c44 0 89 -41 89 -110c0 -118 -102 -195 -127 -211c-13 -7 -24 -4 -26 -1c-2 4 -2 12 3 18c17 23 52 63 52 113z"/>
    <glyph glyph-name="hyphen" unicode="-" horiz-adv-x="385" d="M60 220v68h265v-68h-265z"/>
    <glyph glyph-name="period" unicode="." horiz-adv-x="301" d="M65 75c0 11 71 86 85 86c15 0 86 -73 86 -86c0 -16 -73 -86 -86 -86c-11 0 -85 73 -85 86z"/>
    <glyph glyph-name="slash" unicode="/" horiz-adv-x="364" d="M-13 12l317 740l68 -24l-317 -740z"/>
    <glyph glyph-name="zero" unicode="0" horiz-adv-x="645" d="M610 360c0 -189 -81 -369 -288 -369c-206 0 -287 180 -287 369s81 369 287 369c207 0 288 -180 288 -369zM470 360c0 161 -22 309 -148 309c-125 0 -147 -148 -147 -309s22 -309 147 -309c127 0 148 148 148 309z"/>
    <glyph glyph-name="one" unicode="1" horiz-adv-x="402" d="M301 0h-119v575l-162 -13l246 161l36 27z"/>
    <glyph glyph-name="two" unicode="2" horiz-adv-x="521" d="M431 0h-453l92 100c148 158 239 248 246 385c0 105 -69 150 -128 150c-78 0 -146 -51 -162 -142c-14 152 76 240 212 240c121 0 212 -89 212 -204c0 -162 -157 -269 -314 -429h322z"/>
    <glyph glyph-name="three" unicode="3" horiz-adv-x="564" d="M241 -10c-92 0 -147 16 -181 64c-21 30 -35 64 -32 95l44 -30c14 -37 26 -71 138 -71c88 0 174 55 174 158c0 94 -33 185 -186 185h-31v44h53h38c46 22 91 64 91 123c0 74 -55 112 -112 112c-78 0 -137 -51 -173 -120c-7 113 78 188 211 188c112 0 200 -58 200 -157 c0 -75 -61 -124 -123 -148c106 -20 172 -111 172 -201c0 -145 -122 -242 -283 -242z"/>
    <glyph glyph-name="four" unicode="4" horiz-adv-x="590" d="M340 261v285l-229 -285h229zM559 189h-100v-189h-119v189h-323v33l15 19l337 427l91 119l-1 -526h100v-72z"/>
    <glyph glyph-name="five" unicode="5" horiz-adv-x="536" d="M230 -10c-119 0 -182 81 -198 142l66 -37c25 -32 73 -47 111 -47c107 0 176 72 172 174c-4 113 -101 158 -190 159c-28 0 -96 -6 -124 -27l16 124l30 240h10v1h360l-17 -110h-317l-15 -118c29 4 61 6 83 5c149 -5 272 -75 277 -235c5 -167 -111 -271 -264 -271z"/>
    <glyph glyph-name="six" unicode="6" horiz-adv-x="561" d="M282 -9c-195 0 -247 142 -247 289c0 125 90 255 142 311c65 70 191 154 282 143c-74 -35 -172 -133 -215 -202c-21 -33 -42 -74 -56 -129c35 28 82 44 123 44c138 0 220 -77 220 -204c0 -155 -114 -252 -249 -252zM292 41c66 0 102 59 102 166c0 106 -40 182 -117 182 c-45 0 -87 -22 -104 -81c-1 -14 -1 -29 -1 -44c0 -100 5 -223 120 -223z"/>
    <glyph glyph-name="seven" unicode="7" horiz-adv-x="456" d="M422 621l-232 -621h-154l327 623h-353l-1 110h478l-64 -110h-2z"/>
    <glyph glyph-name="eight" unicode="8" horiz-adv-x="557" d="M281 -11c-148 0 -239 76 -239 183c0 87 55 154 131 192c-62 39 -114 91 -114 188c0 91 94 188 215 188c130 0 213 -73 213 -169c0 -65 -49 -120 -127 -159c82 -49 160 -108 160 -220c0 -122 -117 -203 -239 -203zM175 600c0 -77 68 -120 143 -164c46 41 72 88 72 128 c0 58 -35 130 -115 130c-57 0 -100 -40 -100 -94zM279 41c61 0 113 47 113 125c0 93 -90 128 -177 174c-49 -46 -67 -99 -67 -158c0 -76 41 -141 131 -141z"/>
    <glyph glyph-name="nine" unicode="9" horiz-adv-x="561" d="M159 -10c-40 -10 -60 12 -15 36c88 47 196 116 232 294c-35 -30 -84 -47 -126 -47c-138 0 -220 77 -220 204c0 155 114 252 249 252c195 0 247 -142 247 -289c0 -125 -90 -255 -142 -311c-50 -54 -148 -120 -225 -139zM284 331c45 0 87 22 104 82c1 14 1 28 1 43 c0 100 -5 223 -120 223c-66 0 -102 -59 -102 -166c0 -106 40 -182 117 -182z"/>
    <glyph glyph-name="colon" unicode=":" horiz-adv-x="311" d="M70 402c0 11 71 86 85 86c15 0 86 -73 86 -86c0 -16 -73 -86 -86 -86c-11 0 -85 73 -85 86zM70 76c0 11 71 86 85 86c15 0 86 -73 86 -86c0 -16 -73 -86 -86 -86c-11 0 -85 73 -85 86z"/>
    <glyph glyph-name="semicolon" unicode=";" horiz-adv-x="311" d="M70 403c0 11 71 86 85 86c15 0 86 -73 86 -86c0 -16 -73 -86 -86 -86c-11 0 -85 73 -85 86zM146 -29c0 25 -19 35 -27 36c-10 6 -49 21 -49 75c0 43 34 80 85 80c44 0 89 -41 89 -110c0 -118 -102 -195 -127 -211c-13 -7 -24 -4 -26 -1c-2 4 -2 12 3 18 c17 23 52 63 52 113z"/>
    <glyph glyph-name="question" unicode="?" horiz-adv-x="510" d="M118 518c-43 0 -77 29 -77 82c0 59 91 141 197 141h17c90 0 213 -50 213 -184c0 -88 -69 -183 -215 -198l-32 -140h-24l-23 214c129 2 166 75 166 138c-1 83 -64 126 -137 126c-31 0 -61 -7 -76 -27c33 0 69 -32 69 -75s-35 -77 -78 -77zM124 82c0 11 71 86 85 86 c15 0 86 -73 86 -86c0 -16 -73 -86 -86 -86c-11 0 -85 73 -85 86z"/>
    <glyph glyph-name="at" unicode="@" horiz-adv-x="819" d="M343 -17c-201 0 -308 144 -308 288c0 272 233 429 448 429c135 0 301 -75 301 -285c0 -233 -163 -280 -240 -280c-41 0 -72 22 -82 56c-25 -38 -67 -54 -103 -54c-74 0 -148 60 -120 204c21 114 116 212 233 212c24 0 53 -8 72 -35l68 21l-55 -260h1c-1 -2 -2 -4 -2 -7
l-4 -18c-1 -4 -1 -8 -2 -12c-3 -19 -8 -62 29 -62c44 0 111 56 111 224c0 157 -103 255 -214 256c-110 1 -337 -68 -337 -372c0 -121 89 -264 263 -264c58 0 153 24 195 46l12 -28c-89 -49 -193 -59 -266 -59zM414 198c17 0 32 3 45 13v2c0 15 5 62 10 82l36 158
c-7 38 -25 56 -41 56c-63 0 -108 -85 -123 -163c-16 -112 33 -148 73 -148z"/>
    <glyph glyph-name="A" unicode="A" horiz-adv-x="748" d="M420 266l-97 261l-107 -261h204zM518 0l-77 209h-248l-86 -209h-75l307 727h53l284 -727h-158z"/>
    <glyph glyph-name="B" unicode="B" horiz-adv-x="751" d="M306 667h-12v-274c109 0 218 6 218 133c0 55 -21 103 -60 122c-37 20 -84 19 -146 19zM346 342h-52v-291h94c85 2 164 44 164 140c0 97 -75 151 -206 151zM154 0v718h78l222 1c130 0 207 -74 207 -168c0 -75 -34 -139 -163 -178c114 -10 203 -67 203 -187
c0 -96 -76 -186 -238 -186h-309z"/>
    <glyph glyph-name="C" unicode="C" horiz-adv-x="731" d="M645 95c-54 -83 -159 -113 -255 -113c-207 0 -340 153 -340 355c0 252 146 397 365 397c77 0 186 -53 229 -163v-86c-75 127 -105 180 -234 180c-120 0 -203 -125 -203 -297s62 -320 205 -320c141 0 203 60 233 126v-79z"/>
    <glyph glyph-name="D" unicode="D" horiz-adv-x="806" d="M358 -2c-171 0 -229 2 -229 2v718h237c199 0 390 -106 390 -361c0 -199 -130 -359 -398 -359zM337 662h-68v-607h88c164 0 239 115 239 292c0 178 -80 315 -259 315z"/>
    <glyph glyph-name="E" unicode="E" horiz-adv-x="710" d="M650 62v-62h-521v718h507v-57h-367v-264h223v-61h-223v-274h381z"/>
    <glyph glyph-name="F" unicode="F" horiz-adv-x="636" d="M492 326h-223v-326h-140v718h489v-57h-349v-274h223v-61z"/>
    <glyph glyph-name="G" unicode="G" horiz-adv-x="788" d="M654 134c-26 -89 -155 -152 -257 -152c-219 0 -347 153 -347 355c0 252 154 397 385 397c77 0 165 -26 221 -110v-137c-32 80 -140 159 -222 158c-152 -2 -227 -105 -227 -277s50 -298 207 -290c90 4 119 44 126 77l2 136l114 90z"/>
    <glyph glyph-name="H" unicode="H" horiz-adv-x="847" d="M573 0v335h-304v-335h-140v719h140v-327h304v325h140v-717h-140z"/>
    <glyph glyph-name="I" unicode="I" horiz-adv-x="403" d="M129 0v718h140v-718h-140z"/>
    <glyph glyph-name="J" unicode="J" horiz-adv-x="378" d="M29 -224c46 56 89 83 91 261v681h140v-665c0 -222 -136 -277 -231 -277z"/>
    <glyph glyph-name="K" unicode="K" horiz-adv-x="743" d="M771 -46c-115 0 -263 137 -349 245c-57 71 -79 99 -105 130l-48 -48v-281h-140v718h140v-362l350 362h80l-269 -273z"/>
    <glyph glyph-name="L" unicode="L" horiz-adv-x="722" d="M129 0v716h140v-654h383v-62h-523z"/>
    <glyph glyph-name="M" unicode="M" horiz-adv-x="1025" d="M499 61l-36 -73l-284 585v-573h-62v718h139l246 -510l249 510h140v-718h-140v589l-226 -472z"/>
    <glyph glyph-name="N" unicode="N" horiz-adv-x="815" d="M698 -15l-513 525v-510h-67v719h67v-1h8l438 -446v446h67v-733z"/>
    <glyph glyph-name="O" unicode="O" horiz-adv-x="811" d="M405 739c228 0 359 -166 360 -380c1 -233 -140 -378 -360 -382c-219 3 -360 147 -360 380c0 226 144 382 360 382zM608 358c0 161 -55 321 -203 322s-203 -160 -203 -322c0 -163 54 -322 203 -322c148 0 203 160 203 322z"/>
    <glyph glyph-name="P" unicode="P" horiz-adv-x="653" d="M291 667h-22v-324c112 0 228 4 228 163c0 65 -21 119 -60 142c-37 20 -84 19 -146 19zM388 293c-68 0 -102 2 -119 4v-297h-140v718h78l202 1c148 0 237 -94 237 -198c0 -120 -94 -228 -258 -228z"/>
    <glyph glyph-name="Q" unicode="Q" horiz-adv-x="831" d="M735 -228c-117 28 -168 106 -270 208c-16 -2 -33 -3 -50 -3c-221 3 -365 147 -365 380c0 226 147 382 365 382c230 0 364 -166 365 -380c1 -150 -59 -264 -161 -327zM623 358c0 161 -58 321 -208 322s-208 -160 -208 -322c0 -163 57 -322 208 -322c150 0 208 160 208 322
z"/>
    <glyph glyph-name="R" unicode="R" horiz-adv-x="739" d="M754 -46c-173 1 -356 276 -466 386l-19 -1v-339h-140v718h78s132 1 238 1c130 0 207 -84 207 -178c0 -79 -38 -155 -184 -194zM297 667h-28v-284c114 0 234 0 234 143c0 55 -21 103 -60 122c-37 20 -84 19 -146 19z"/>
    <glyph glyph-name="S" unicode="S" horiz-adv-x="640" d="M305 742c152 0 250 -33 287 -163l-148 -22c-17 85 -75 117 -129 117c-71 0 -129 -31 -129 -102c0 -62 60 -130 150 -153l95 -22c97 -24 180 -96 181 -179c1 -115 -96 -224 -267 -224c-155 0 -266 39 -302 156l144 40c20 -68 95 -124 160 -124c64 0 139 32 139 93
c0 47 -29 102 -88 115l-111 29c-141 30 -228 106 -228 213c0 147 116 226 246 226z"/>
    <glyph glyph-name="T" unicode="T" horiz-adv-x="684" d="M674 663h-263v-663h-140v663h-260v57h663v-57z"/>
    <glyph glyph-name="U" unicode="U" horiz-adv-x="805" d="M114 286v432h150v-453c0 -118 33 -213 179 -213c114 0 185 72 185 268l-1 398h74v-408c0 -166 -56 -336 -288 -336c-233 0 -299 131 -299 312z"/>
    <glyph glyph-name="V" unicode="V" horiz-adv-x="827" d="M419 -52l-351 770h168l223 -529l219 529h70l-289 -675l-9 -22z"/>
    <glyph glyph-name="W" unicode="W" horiz-adv-x="1104" d="M803 21l-27 -73l-217 581l-133 -396l1 -3l-38 -109l-28 -73l-308 773h154l186 -501l131 403l-36 97h153l172 -507l180 508h68z"/>
    <glyph glyph-name="X" unicode="X" horiz-adv-x="761" d="M543 0l-197 296l-219 -296h-79l266 344l-250 375h158l183 -274l194 273h70l-233 -321l265 -397h-158z"/>
    <glyph glyph-name="Y" unicode="Y" horiz-adv-x="734" d="M449 0h-140v271l-244 447h158l202 -369l211 368h70l-257 -431v-286z"/>
    <glyph glyph-name="Z" unicode="Z" horiz-adv-x="716" d="M13 0l418 651h-346v67h556l-424 -645l421 1v-74h-625z"/>
    <glyph glyph-name="grave" unicode="`" d="M331 727l3 -4c27 -36 95 -148 112 -173l-17 -18l-219 165l14 30h107z"/>
    <glyph glyph-name="a" unicode="a" horiz-adv-x="512" d="M368 -16l-25 92c-32 -53 -100 -90 -166 -90c-93 0 -122 69 -122 114c0 80 63 134 125 153c66 20 114 18 162 22l1 59c-1 73 -35 112 -87 112c-44 0 -69 -32 -77 -73l-104 -24c11 79 95 145 198 145h16c87 0 168 -40 168 -174v-309zM225 61c36 0 93 23 115 75l1 105
c-27 -6 -54 -16 -99 -33c-54 -24 -68 -61 -68 -99c0 -30 25 -48 51 -48z"/>
    <glyph glyph-name="b" unicode="b" horiz-adv-x="607" d="M566 245c0 -134 -116 -291 -277 -258c-41 8 -69 27 -89 53v-52h-120v733l120 80l-1 -370c42 36 104 56 149 56c107 0 218 -76 218 -242zM309 51c81 0 133 57 133 148c0 135 -72 199 -161 199c-20 0 -53 -2 -82 -24v-201v-76c28 -30 67 -46 110 -46z"/>
    <glyph glyph-name="c" unicode="c" horiz-adv-x="515" d="M460 72c-24 -40 -87 -82 -181 -82c-144 0 -239 101 -239 234c0 160 109 265 261 265c89 0 162 -53 168 -128l-88 -17c0 40 0 98 -91 98c-75 0 -137 -66 -137 -162c0 -122 69 -199 166 -199c58 0 101 21 134 44z"/>
    <glyph glyph-name="d" unicode="d" horiz-adv-x="613" d="M409 -18l-1 67c-33 -44 -87 -63 -149 -62c-107 2 -218 76 -218 242c0 134 113 258 277 258c28 0 59 -4 89 -16v270l120 60v-817zM165 275c0 -135 103 -203 161 -199c20 1 53 3 81 24v219c-8 81 -59 118 -110 118c-50 0 -132 -71 -132 -162z"/>
    <glyph glyph-name="e" unicode="e" horiz-adv-x="520" d="M362 309c0 79 -33 133 -96 133c-54 0 -113 -48 -113 -133h209zM279 -10h-4c-155 0 -235 117 -235 240c0 140 95 259 241 259c83 0 202 -43 209 -180v-7v-13v-30h-337c5 -100 67 -168 166 -168h1c58 0 109 31 142 54l7 -53c-24 -40 -96 -102 -190 -102z"/>
    <glyph glyph-name="f" unicode="f" horiz-adv-x="347" d="M340 415h-119v-415h-120v415h-77v64h75c-19 217 192 253 248 174l-35 -39c-18 31 -116 58 -93 -135h121v-64z"/>
    <glyph glyph-name="g" unicode="g" horiz-adv-x="529" d="M247 -234c-121 0 -227 42 -227 123c0 79 114 116 190 126c-40 17 -76 33 -89 39v32l48 27l63 42c-107 11 -179 73 -179 166c0 102 97 168 225 168c127 0 206 -66 206 -168c0 -96 -77 -160 -192 -167l-55 -37c74 -28 148 -57 194 -80c57 -29 73 -64 73 -106
c0 -85 -108 -165 -257 -165zM269 447c-60 0 -85 -47 -85 -126c0 -78 25 -125 85 -125s85 47 85 125c0 79 -25 126 -85 126zM264 -192c77 0 133 33 133 78c0 42 -46 66 -82 83c-16 7 -36 16 -58 26c-68 -7 -126 -57 -127 -90c-2 -54 62 -97 134 -97z"/>
    <glyph glyph-name="h" unicode="h" horiz-adv-x="605" d="M306 417c-71 0 -92 -54 -99 -82v-335h-119v670l120 80v-334c31 46 77 73 149 73c95 0 162 -60 162 -174l-1 -315h-120l1 285c0 53 -3 76 -18 99c-14 22 -39 33 -75 33z"/>
    <glyph glyph-name="i" unicode="i" horiz-adv-x="305" d="M72 636c0 11 71 86 85 86c15 0 86 -73 86 -86c0 -16 -73 -86 -86 -86c-11 0 -85 73 -85 86zM96 0v436l120 73v-509h-120z"/>
    <glyph glyph-name="j" unicode="j" horiz-adv-x="299" d="M78 636c0 11 71 86 85 86c15 0 86 -73 86 -86c0 -16 -73 -86 -86 -86c-11 0 -85 73 -85 86zM25 -234c39 48 76 70 77 220v450l120 73v-509c0 -187 -117 -234 -197 -234z"/>
    <glyph glyph-name="k" unicode="k" horiz-adv-x="565" d="M572 1c-52 -1 -103 -2 -155 0l-188 231h-22v-232h-119v670l120 80l-1 -463h28l209 194h74l-195 -175z"/>
    <glyph glyph-name="l" unicode="l" horiz-adv-x="308" d="M93 0v691l120 80l-1 -771h-119z"/>
    <glyph glyph-name="m" unicode="m" horiz-adv-x="888" d="M303 415c-64 0 -82 -53 -87 -80v-335h-120v441l90 60l23 -96c30 53 74 84 147 84c66 0 118 -33 140 -96c30 60 75 96 154 96c89 0 152 -60 152 -174l-1 -315h-120l1 279c-1 84 -19 136 -85 136c-86 0 -89 -96 -89 -96v-4l-1 -315h-120l1 279c-1 84 -19 136 -85 136z"/>
    <glyph glyph-name="n" unicode="n" horiz-adv-x="572" d="M289 417c-73 0 -93 -57 -99 -84v-333h-120v441l90 60l23 -97c32 53 79 85 157 85c95 0 162 -60 162 -174l-1 -315h-120l1 285c0 53 -3 76 -18 99c-14 22 -39 33 -75 33z"/>
    <glyph glyph-name="o" unicode="o" horiz-adv-x="584" d="M292 489c157 0 251 -108 252 -249c0 -155 -101 -247 -252 -250c-151 2 -252 94 -252 248c0 150 103 251 252 251zM405 239c0 106 -25 202 -113 203c-89 1 -113 -96 -113 -203s24 -201 113 -201c88 0 113 94 113 201z"/>
    <glyph glyph-name="p" unicode="p" horiz-adv-x="621" d="M324 37c81 0 132 71 132 162c0 135 -72 199 -161 199c-16 0 -49 -13 -81 -34v-213c7 -78 46 -114 110 -114zM303 -13c-28 0 -59 4 -89 16v-228h-120v666l117 87l2 -110c45 43 105 69 149 69c107 0 218 -76 218 -242c0 -134 -113 -258 -277 -258z"/>
    <glyph glyph-name="q" unicode="q" horiz-adv-x="621" d="M517 -225h-120v280c-44 -41 -102 -66 -145 -66c-107 0 -218 76 -218 242c0 134 113 258 277 258c31 0 66 -8 98 -28l108 65v-751zM319 78c15 0 47 12 78 32v237c-12 63 -49 92 -107 92c-81 0 -132 -71 -132 -162c0 -135 72 -199 161 -199z"/>
    <glyph glyph-name="r" unicode="r" horiz-adv-x="406" d="M271 401c-37 -38 -51 -82 -55 -143v-258h-120v441l90 60l27 -127c23 66 70 115 128 115c34 0 75 -25 75 -78v-8l-107 -64c-4 27 -12 64 -38 62z"/>
    <glyph glyph-name="s" unicode="s" horiz-adv-x="462" d="M218 494c102 0 167 -22 192 -109l-106 -15c-9 49 -50 70 -79 70c-48 0 -83 -21 -83 -60c0 -41 39 -70 99 -85l63 -15c65 -16 119 -65 119 -136c0 -77 -64 -150 -178 -150c-104 0 -179 31 -202 104l108 27c12 -41 60 -72 95 -72c43 0 89 13 89 54c0 24 -15 50 -55 59
l-74 19c-94 20 -152 80 -152 158c0 98 77 151 164 151z"/>
    <glyph glyph-name="t" unicode="t" horiz-adv-x="390" d="M390 68c-19 -32 -69 -78 -146 -78c-112 0 -166 70 -166 184l1 241h-70v64h70l79 151h39v-151h168v-64h-166l-1 -224c0 -66 37 -109 91 -109c31 0 55 9 90 37c4 -17 2 -11 11 -51z"/>
    <glyph glyph-name="u" unicode="u" horiz-adv-x="597" d="M415 -23l-23 97c-31 -54 -74 -85 -152 -85c-95 0 -160 60 -160 174l1 272l120 74l-1 -310c1 -84 19 -136 93 -136c68 0 87 48 92 76v296l120 74v-487z"/>
    <glyph glyph-name="v" unicode="v" horiz-adv-x="523" d="M279 1v1l-21 -45l-240 522h140l138 -326l143 326h60z"/>
    <glyph glyph-name="w" unicode="w" horiz-adv-x="798" d="M555 -44l-159 386l-101 -246l-58 -140l-215 523h130l118 -317l97 251l-27 66h130l117 -318l123 318h60l-158 -385z"/>
    <glyph glyph-name="x" unicode="x" horiz-adv-x="545" d="M372 0l-129 181l-126 -181h-84l179 224l-181 255h140l123 -169l138 169h72l-179 -212l194 -267h-147z"/>
    <glyph glyph-name="y" unicode="y" horiz-adv-x="526" d="M254 -71c-63 -124 -112 -151 -206 -151l1 30c78 0 147 132 158 152l24 55l-213 464h130l146 -324l145 324h60z"/>
    <glyph glyph-name="z" unicode="z" horiz-adv-x="522" d="M28 0l288 429h-246v50h422l-296 -429h266v-50h-434z"/>
    <glyph glyph-name="Adieresis" unicode="&#xc4;" horiz-adv-x="748" d="M415 883c0 36 28 65 64 65c35 0 65 -29 65 -65s-30 -64 -65 -64c-36 0 -64 28 -64 64zM204 883c0 36 29 65 64 65c36 0 65 -29 65 -65s-29 -64 -65 -64c-35 0 -64 28 -64 64zM420 266l-97 261l-107 -261h204zM518 0l-77 209h-248l-86 -209h-75l307 727h53l284 -727h-158z
"/>
    <glyph glyph-name="Aring" unicode="&#xc5;" horiz-adv-x="748" d="M263 882c0 58 50 87 113 87c64 0 115 -29 115 -87c0 -59 -51 -87 -115 -87c-63 0 -113 28 -113 87zM332 882c0 -39 20 -51 45 -51c26 0 46 12 46 51c0 40 -20 53 -46 53c-25 0 -45 -13 -45 -53zM420 266l-97 261l-107 -261h204zM518 0l-77 209h-248l-86 -209h-75l307 727
h53l284 -727h-158z"/>
    <glyph glyph-name="Ccedilla" unicode="&#xc7;" horiz-adv-x="749" d="M462 -154c0 -93 -101 -117 -162 -117c-27 0 -52 7 -70 25c64 4 124 21 124 80c0 30 -23 56 -67 65l63 85c-184 18 -300 164 -300 353c0 252 146 397 365 397c77 0 186 -53 229 -163v-86c-75 127 -105 180 -234 180c-120 0 -203 -125 -203 -297s62 -320 205 -320
c141 0 203 60 233 126v-79c-53 -81 -153 -111 -247 -113l-30 -38c46 -12 94 -50 94 -98zM390 -18h8l14 18h-50l-12 -16c13 -1 26 -2 40 -2z"/>
    <glyph glyph-name="Eacute" unicode="&#xc9;" horiz-adv-x="710" d="M292 789l155 148h127l14 -31l-279 -135zM650 62v-62h-521v718h507v-57h-367v-264h223v-61h-223v-274h381z"/>
    <glyph glyph-name="Ntilde" unicode="&#xd1;" horiz-adv-x="815" d="M479 803c-51 -1 -97 50 -154 50c-51 0 -74 -18 -75 -44l-13 2c3 62 37 129 99 129c57 0 109 -47 153 -47c59 0 74 30 75 45l13 -2c-3 -62 -30 -132 -98 -133zM698 -15l-513 525v-510h-67v719h67v-1h8l438 -446v446h67v-733z"/>
    <glyph glyph-name="Odieresis" unicode="&#xd6;" horiz-adv-x="811" d="M446 883c0 36 28 65 64 65c35 0 65 -29 65 -65s-30 -64 -65 -64c-36 0 -64 28 -64 64zM235 883c0 36 29 65 64 65c36 0 65 -29 65 -65s-29 -64 -65 -64c-35 0 -64 28 -64 64zM405 739c228 0 359 -166 360 -380c1 -233 -140 -378 -360 -382c-219 3 -360 147 -360 380
c0 226 144 382 360 382zM608 358c0 161 -55 321 -203 322s-203 -160 -203 -322c0 -163 54 -322 203 -322c148 0 203 160 203 322z"/>
    <glyph glyph-name="Udieresis" unicode="&#xdc;" horiz-adv-x="805" d="M491 883c0 36 28 65 64 65c35 0 65 -29 65 -65s-30 -64 -65 -64c-36 0 -64 28 -64 64zM280 883c0 36 29 65 64 65c36 0 65 -29 65 -65s-29 -64 -65 -64c-35 0 -64 28 -64 64zM114 286v432h150v-453c0 -118 33 -213 179 -213c114 0 185 72 185 268l-1 398h74v-408
c0 -166 -56 -336 -288 -336c-233 0 -299 131 -299 312z"/>
    <glyph glyph-name="aacute" unicode="&#xe1;" horiz-adv-x="531" d="M343 723l3 4h107l14 -30l-219 -165l-17 18c17 25 85 137 112 173zM368 -16l-25 92c-32 -53 -100 -90 -166 -90c-93 0 -122 69 -122 114c0 80 63 134 125 153c66 20 114 18 162 22l1 59c-1 73 -35 112 -87 112c-44 0 -69 -32 -77 -73l-104 -24c11 79 95 145 198 145h16
c87 0 168 -40 168 -174v-309zM225 61c36 0 93 23 115 75l1 105c-27 -6 -54 -16 -99 -33c-54 -24 -68 -61 -68 -99c0 -30 25 -48 51 -48z"/>
    <glyph glyph-name="agrave" unicode="&#xe0;" horiz-adv-x="531" d="M273 727l3 -4c27 -36 95 -148 112 -173l-17 -18l-219 165l14 30h107zM368 -16l-25 92c-32 -53 -100 -90 -166 -90c-93 0 -122 69 -122 114c0 80 63 134 125 153c66 20 114 18 162 22l1 59c-1 73 -35 112 -87 112c-44 0 -69 -32 -77 -73l-104 -24c11 79 95 145 198 145h16
c87 0 168 -40 168 -174v-309zM225 61c36 0 93 23 115 75l1 105c-27 -6 -54 -16 -99 -33c-54 -24 -68 -61 -68 -99c0 -30 25 -48 51 -48z"/>
    <glyph glyph-name="acircumflex" unicode="&#xe2;" horiz-adv-x="531" d="M437 566l-18 -22l-145 80l-149 -80l-15 21l164 169zM368 -16l-25 92c-32 -53 -100 -90 -166 -90c-93 0 -122 69 -122 114c0 80 63 134 125 153c66 20 114 18 162 22l1 59c-1 73 -35 112 -87 112c-44 0 -69 -32 -77 -73l-104 -24c11 79 95 145 198 145h16
c87 0 168 -40 168 -174v-309zM225 61c36 0 93 23 115 75l1 105c-27 -6 -54 -16 -99 -33c-54 -24 -68 -61 -68 -99c0 -30 25 -48 51 -48z"/>
    <glyph glyph-name="adieresis" unicode="&#xe4;" horiz-adv-x="531" d="M302 644c0 34 27 62 61 62s62 -28 62 -62s-28 -61 -62 -61s-61 27 -61 61zM121 644c0 34 27 62 61 62s62 -28 62 -62s-28 -61 -62 -61s-61 27 -61 61zM368 -16l-25 92c-32 -53 -100 -90 -166 -90c-93 0 -122 69 -122 114c0 80 63 134 125 153c66 20 114 18 162 22l1 59
c-1 73 -35 112 -87 112c-44 0 -69 -32 -77 -73l-104 -24c11 79 95 145 198 145h16c87 0 168 -40 168 -174v-309zM225 61c36 0 93 23 115 75l1 105c-27 -6 -54 -16 -99 -33c-54 -24 -68 -61 -68 -99c0 -30 25 -48 51 -48z"/>
    <glyph glyph-name="atilde" unicode="&#xe3;" horiz-adv-x="531" d="M347 574c-45 -1 -85 46 -135 46c-45 0 -65 -17 -66 -41l-11 2c3 57 32 119 87 119c50 0 95 -43 134 -43c52 0 65 27 66 41l11 -2c-3 -57 -26 -121 -86 -122zM368 -16l-25 92c-32 -53 -100 -90 -166 -90c-93 0 -122 69 -122 114c0 80 63 134 125 153c66 20 114 18 162 22
l1 59c-1 73 -35 112 -87 112c-44 0 -69 -32 -77 -73l-104 -24c11 79 95 145 198 145h16c87 0 168 -40 168 -174v-309zM225 61c36 0 93 23 115 75l1 105c-27 -6 -54 -16 -99 -33c-54 -24 -68 -61 -68 -99c0 -30 25 -48 51 -48z"/>
    <glyph glyph-name="aring" unicode="&#xe5;" horiz-adv-x="531" d="M175 646c0 55 48 82 109 82s110 -27 110 -82s-49 -81 -110 -81s-109 26 -109 81zM241 647c0 -37 20 -48 44 -48s44 11 44 48s-20 49 -44 49s-44 -12 -44 -49zM368 -16l-25 92c-32 -53 -100 -90 -166 -90c-93 0 -122 69 -122 114c0 80 63 134 125 153c66 20 114 18 162 22
l1 59c-1 73 -35 112 -87 112c-44 0 -69 -32 -77 -73l-104 -24c11 79 95 145 198 145h16c87 0 168 -40 168 -174v-309zM225 61c36 0 93 23 115 75l1 105c-27 -6 -54 -16 -99 -33c-54 -24 -68 -61 -68 -99c0 -30 25 -48 51 -48z"/>
    <glyph glyph-name="ccedilla" unicode="&#xe7;" horiz-adv-x="515" d="M346 -154c0 -84 -97 -112 -158 -112c-27 0 -52 7 -70 25c46 7 128 10 128 75c0 30 -27 56 -71 65l69 93c-124 15 -204 110 -204 232c0 160 109 265 261 265c89 0 162 -53 168 -128l-88 -17c0 40 0 98 -91 98c-75 0 -137 -66 -137 -162c0 -122 69 -199 166 -199 c58 0 101 21 134 44l7 -53c-23 -38 -81 -78 -168 -82l-36 -46c46 -12 90 -50 90 -98z"/>
    <glyph glyph-name="eacute" unicode="&#xe9;" horiz-adv-x="520" d="M327 723l3 4h107l14 -30l-219 -165l-17 18c17 25 85 137 112 173zM362 309c0 79 -33 133 -96 133c-54 0 -113 -48 -113 -133h209zM279 -10h-4c-155 0 -235 117 -235 240c0 140 95 259 241 259c83 0 202 -43 209 -180v-7v-13v-30h-337c5 -100 67 -168 166 -168h1 c58 0 109 31 142 54l7 -53c-24 -40 -96 -102 -190 -102z"/>
    <glyph glyph-name="egrave" unicode="&#xe8;" horiz-adv-x="520" d="M269 727l3 -4c27 -36 95 -148 112 -173l-17 -18l-219 165l14 30h107zM362 309c0 79 -33 133 -96 133c-54 0 -113 -48 -113 -133h209zM279 -10h-4c-155 0 -235 117 -235 240c0 140 95 259 241 259c83 0 202 -43 209 -180v-7v-13v-30h-337c5 -100 67 -168 166 -168h1 c58 0 109 31 142 54l7 -53c-24 -40 -96 -102 -190 -102z"/>
    <glyph glyph-name="ecircumflex" unicode="&#xea;" horiz-adv-x="520" d="M449 566l-18 -22l-145 80l-149 -80l-15 21l164 169zM362 309c0 79 -33 133 -96 133c-54 0 -113 -48 -113 -133h209zM279 -10h-4c-155 0 -235 117 -235 240c0 140 95 259 241 259c83 0 202 -43 209 -180v-7v-13v-30h-337c5 -100 67 -168 166 -168h1c58 0 109 31 142 54 l7 -53c-24 -40 -96 -102 -190 -102z"/>
    <glyph glyph-name="edieresis" unicode="&#xeb;" horiz-adv-x="520" d="M308 644c0 34 27 62 61 62s62 -28 62 -62s-28 -61 -62 -61s-61 27 -61 61zM127 644c0 34 27 62 61 62s62 -28 62 -62s-28 -61 -62 -61s-61 27 -61 61zM362 309c0 79 -33 133 -96 133c-54 0 -113 -48 -113 -133h209zM279 -10h-4c-155 0 -235 117 -235 240 c0 140 95 259 241 259c83 0 202 -43 209 -180v-7v-13v-30h-337c5 -100 67 -168 166 -168h1c58 0 109 31 142 54l7 -53c-24 -40 -96 -102 -190 -102z"/>
    <glyph glyph-name="iacute" unicode="&#xed;" horiz-adv-x="318" d="M243 723l3 4h107l14 -30l-219 -165l-17 18c17 25 85 137 112 173zM34 0l72 70v286l-72 36l72 44l13 8l46 28l61 37v-439l77 -70h-269z"/>
    <glyph glyph-name="igrave" unicode="&#xec;" horiz-adv-x="318" d="M122 727l3 -4c27 -36 95 -148 112 -173l-17 -18l-219 165l14 30h107zM34 0l72 70v286l-72 36l72 44l13 8l46 28l61 37v-439l77 -70h-269z"/>
    <glyph glyph-name="icircumflex" unicode="&#xee;" horiz-adv-x="318" d="M333 566l-18 -22l-145 80l-149 -80l-15 21l164 169zM34 0l72 70v286l-72 36l72 44l13 8l46 28l61 37v-439l77 -70h-269z"/>
    <glyph glyph-name="idieresis" unicode="&#xef;" horiz-adv-x="318" d="M198 644c0 34 27 62 61 62s62 -28 62 -62s-28 -61 -62 -61s-61 27 -61 61zM17 644c0 34 27 62 61 62s62 -28 62 -62s-28 -61 -62 -61s-61 27 -61 61zM34 0l72 70v286l-72 36l72 44l13 8l46 28l61 37v-439l77 -70h-269z"/>
    <glyph glyph-name="ntilde" unicode="&#xf1;" horiz-adv-x="614" d="M401 574c-45 -1 -85 46 -135 46c-45 0 -65 -17 -66 -41l-11 2c3 57 32 119 87 119c50 0 95 -43 134 -43c52 0 65 27 66 41l11 -2c-3 -57 -26 -121 -86 -122zM289 417c-73 0 -93 -57 -99 -84v-333h-120v441l90 60l23 -97c32 53 79 85 157 85c95 0 162 -60 162 -174
l-1 -315h-120l1 285c0 53 -3 76 -18 99c-14 22 -39 33 -75 33z"/>
    <glyph glyph-name="oacute" unicode="&#xf3;" horiz-adv-x="584" d="M358 723l3 4h107l14 -30l-219 -165l-17 18c17 25 85 137 112 173zM292 489c157 0 251 -108 252 -249c0 -155 -101 -247 -252 -250c-151 2 -252 94 -252 248c0 150 103 251 252 251zM405 239c0 106 -25 202 -113 203c-89 1 -113 -96 -113 -203s24 -201 113 -201
c88 0 113 94 113 201z"/>
    <glyph glyph-name="ograve" unicode="&#xf2;" horiz-adv-x="584" d="M257 727l3 -4c27 -36 95 -148 112 -173l-17 -18l-219 165l14 30h107zM292 489c157 0 251 -108 252 -249c0 -155 -101 -247 -252 -250c-151 2 -252 94 -252 248c0 150 103 251 252 251zM405 239c0 106 -25 202 -113 203c-89 1 -113 -96 -113 -203s24 -201 113 -201
c88 0 113 94 113 201z"/>
    <glyph glyph-name="ocircumflex" unicode="&#xf4;" horiz-adv-x="584" d="M464 566l-18 -22l-145 80l-149 -80l-15 21l164 169zM292 489c157 0 251 -108 252 -249c0 -155 -101 -247 -252 -250c-151 2 -252 94 -252 248c0 150 103 251 252 251zM405 239c0 106 -25 202 -113 203c-89 1 -113 -96 -113 -203s24 -201 113 -201c88 0 113 94 113 201z
"/>
    <glyph glyph-name="odieresis" unicode="&#xf6;" horiz-adv-x="584" d="M330 644c0 34 27 62 61 62s62 -28 62 -62s-28 -61 -62 -61s-61 27 -61 61zM149 644c0 34 27 62 61 62s62 -28 62 -62s-28 -61 -62 -61s-61 27 -61 61zM292 489c157 0 251 -108 252 -249c0 -155 -101 -247 -252 -250c-151 2 -252 94 -252 248c0 150 103 251 252 251z
M405 239c0 106 -25 202 -113 203c-89 1 -113 -96 -113 -203s24 -201 113 -201c88 0 113 94 113 201z"/>
    <glyph glyph-name="otilde" unicode="&#xf5;" horiz-adv-x="584" d="M375 574c-45 -1 -85 46 -135 46c-45 0 -65 -17 -66 -41l-11 2c3 57 32 119 87 119c50 0 95 -43 134 -43c52 0 65 27 66 41l11 -2c-3 -57 -26 -121 -86 -122zM292 489c157 0 251 -108 252 -249c0 -155 -101 -247 -252 -250c-151 2 -252 94 -252 248c0 150 103 251 252 251
zM405 239c0 106 -25 202 -113 203c-89 1 -113 -96 -113 -203s24 -201 113 -201c88 0 113 94 113 201z"/>
    <glyph glyph-name="uacute" unicode="&#xfa;" horiz-adv-x="597" d="M354 723l3 4h107l14 -30l-219 -165l-17 18c17 25 85 137 112 173zM415 -23l-23 97c-31 -54 -74 -85 -152 -85c-95 0 -160 60 -160 174l1 272l120 74l-1 -310c1 -84 19 -136 93 -136c68 0 87 48 92 76v296l120 74v-487z"/>
    <glyph glyph-name="ugrave" unicode="&#xf9;" horiz-adv-x="597" d="M304 727l3 -4c27 -36 95 -148 112 -173l-17 -18l-219 165l14 30h107zM415 -23l-23 97c-31 -54 -74 -85 -152 -85c-95 0 -160 60 -160 174l1 272l120 74l-1 -310c1 -84 19 -136 93 -136c68 0 87 48 92 76v296l120 74v-487z"/>
    <glyph glyph-name="ucircumflex" unicode="&#xfb;" horiz-adv-x="597" d="M468 566l-18 -22l-145 80l-149 -80l-15 21l164 169zM415 -23l-23 97c-31 -54 -74 -85 -152 -85c-95 0 -160 60 -160 174l1 272l120 74l-1 -310c1 -84 19 -136 93 -136c68 0 87 48 92 76v296l120 74v-487z"/>
    <glyph glyph-name="udieresis" unicode="&#xfc;" horiz-adv-x="597" d="M333 644c0 34 27 62 61 62s62 -28 62 -62s-28 -61 -62 -61s-61 27 -61 61zM152 644c0 34 27 62 61 62s62 -28 62 -62s-28 -61 -62 -61s-61 27 -61 61zM415 -23l-23 97c-31 -54 -74 -85 -152 -85c-95 0 -160 60 -160 174l1 272l120 74l-1 -310c1 -84 19 -136 93 -136
c68 0 87 48 92 76v296l120 74v-487z"/>
    <glyph glyph-name="acute" unicode="&#xb4;" d="M341 723l3 4h107l14 -30l-219 -165l-17 18c17 25 85 137 112 173z"/>
    <glyph glyph-name="dieresis" unicode="&#xa8;" d="M320 644c0 34 27 62 61 62s62 -28 62 -62s-28 -61 -62 -61s-61 27 -61 61zM139 644c0 34 27 62 61 62s62 -28 62 -62s-28 -61 -62 -61s-61 27 -61 61z"/>
    <glyph glyph-name="AE" unicode="&#xc6;" horiz-adv-x="1029" d="M448 647l-141 -266h141v266zM-24 0l98 95l310 565l-72 58h647l10 -259l-136 202h-245v-279h129l94 140v-341l-94 140h-129v-259h261l160 227l-40 -289h-625l104 81v243h-171l-139 -264l74 -60h-236z"/>
    <glyph glyph-name="ae" unicode="&#xe6;" horiz-adv-x="826" d="M663 309c0 88 -18 133 -92 133c-62 0 -106 -50 -109 -133h201zM220 61c49 0 107 24 128 90c-7 23 -10 48 -10 73v8l1 23c-25 -30 -61 -48 -95 -61c-56 -24 -76 -47 -76 -85c0 -30 26 -48 52 -48zM566 -10c-99 0 -166 48 -201 116c-24 -69 -93 -120 -184 -120
c-96 0 -136 54 -136 114c0 70 61 111 125 126c74 17 172 28 171 115h1c-4 68 -49 105 -101 105c-31 0 -79 -6 -94 -26c44 -17 56 -42 56 -76c0 -39 -34 -70 -71 -70c-46 0 -70 35 -70 81c0 59 90 139 196 139h17c60 0 109 -18 135 -70c42 42 99 65 168 65
c82 0 193 -41 202 -180h1v-50h-320v-24c0 -107 73 -157 149 -157c98 0 128 43 167 106c0 -113 -106 -194 -211 -194z"/>
    <glyph glyph-name="guillemotleft" unicode="&#xab;" horiz-adv-x="479" d="M399 419h40l-98 -183l98 -184h-39l-179 184zM203 419h41l-98 -183l98 -184h-39l-179 184z"/>
    <glyph glyph-name="guillemotright" unicode="&#xbb;" horiz-adv-x="479" d="M40 419h40l178 -183l-179 -184h-39l98 184zM235 419h41l177 -183l-179 -184h-39l98 184z"/>
    <glyph glyph-name="Agrave" unicode="&#xc0;" horiz-adv-x="748" d="M285 937l155 -148l-17 -18l-279 135l14 31h127zM420 266l-97 261l-107 -261h204zM518 0l-77 209h-248l-86 -209h-75l307 727h53l284 -727h-158z"/>
    <glyph glyph-name="Atilde" unicode="&#xc3;" horiz-adv-x="748" d="M459 800c-51 -1 -97 50 -154 50c-51 0 -74 -18 -75 -44l-13 2c3 62 37 129 99 129c57 0 109 -47 153 -47c59 0 74 30 75 45l13 -2c-3 -62 -30 -132 -98 -133zM420 266l-97 261l-107 -261h204zM518 0l-77 209h-248l-86 -209h-75l307 727h53l284 -727h-158z"/>
    <glyph glyph-name="Otilde" unicode="&#xd5;" horiz-adv-x="811" d="M497 804c-51 -1 -97 50 -154 50c-51 0 -74 -18 -75 -44l-13 2c3 62 37 129 99 129c57 0 109 -47 153 -47c59 0 74 30 75 45l13 -2c-3 -62 -30 -132 -98 -133zM405 739c228 0 359 -166 360 -380c1 -233 -140 -378 -360 -382c-219 3 -360 147 -360 380
c0 226 144 382 360 382zM608 358c0 161 -55 321 -203 322s-203 -160 -203 -322c0 -163 54 -322 203 -322c148 0 203 160 203 322z"/>
    <glyph glyph-name="OE" unicode="&#x152;" horiz-adv-x="1151" d="M405 36c81 0 137 30 165 81v459c-16 59 -80 103 -165 104c-148 1 -203 -160 -203 -322c0 -163 54 -322 203 -322zM1091 0h-552c-40 -14 -85 -22 -134 -23c-219 3 -360 147 -360 380c0 226 144 382 360 382c48 0 91 -7 130 -21h546l10 -259l-136 202h-245v-264h129l94 140
v-341l-94 140h-129v-274h261l160 227z"/>
    <glyph glyph-name="oe" unicode="&#x153;" horiz-adv-x="896" d="M636 -10c-62 0 -130 23 -164 72c-41 -50 -124 -71 -178 -72c-151 2 -249 94 -249 248c0 150 100 251 249 251c71 0 138 -26 181 -79c43 55 114 79 173 79c82 0 193 -41 202 -180h1v-50h-320v-24c0 -107 73 -157 149 -157c98 0 128 43 167 106c0 -113 -106 -194 -211 -194
zM733 309c0 88 -18 133 -92 133c-62 0 -106 -50 -109 -133h201zM407 239c0 106 -25 202 -113 203c-89 1 -113 -96 -113 -203s24 -201 113 -201c88 0 113 94 113 201z"/>
    <glyph glyph-name="quotedblleft" unicode="&#x201c;" horiz-adv-x="468" d="M128 597c0 -25 19 -35 27 -36c10 -6 49 -21 49 -75c0 -43 -34 -80 -85 -80c-44 0 -89 41 -89 110c0 118 102 195 127 211c13 7 24 4 26 1c2 -4 2 -12 -3 -18c-17 -23 -52 -63 -52 -113zM342 597c0 -25 19 -35 27 -36c10 -6 49 -21 49 -75c0 -43 -34 -80 -85 -80
c-44 0 -89 41 -89 110c0 118 102 195 127 211c13 7 24 4 26 1c2 -4 2 -12 -3 -18c-17 -23 -52 -63 -52 -113z"/>
    <glyph glyph-name="quotedblright" unicode="&#x201d;" horiz-adv-x="468" d="M340 528c0 25 -19 35 -27 36c-10 6 -49 21 -49 75c0 43 34 80 85 80c44 0 89 -41 89 -110c0 -118 -102 -195 -127 -211c-13 -7 -24 -4 -26 -1c-2 4 -2 12 3 18c17 23 52 63 52 113zM126 528c0 25 -19 35 -27 36c-10 6 -49 21 -49 75c0 43 34 80 85 80
c44 0 89 -41 89 -110c0 -118 -102 -195 -127 -211c-13 -7 -24 -4 -26 -1c-2 4 -2 12 3 18c17 23 52 63 52 113z"/>
    <glyph glyph-name="quoteleft" unicode="&#x2018;" horiz-adv-x="254" d="M128 597c0 -25 19 -35 27 -36c10 -6 49 -21 49 -75c0 -43 -34 -80 -85 -80c-44 0 -89 41 -89 110c0 118 102 195 127 211c13 7 24 4 26 1c2 -4 2 -12 -3 -18c-17 -23 -52 -63 -52 -113z"/>
    <glyph glyph-name="quoteright" unicode="&#x2019;" horiz-adv-x="254" d="M126 528c0 25 -19 35 -27 36c-10 6 -49 21 -49 75c0 43 34 80 85 80c44 0 89 -41 89 -110c0 -118 -102 -195 -127 -211c-13 -7 -24 -4 -26 -1c-2 4 -2 12 3 18c17 23 52 63 52 113z"/>
    <glyph glyph-name="ydieresis" unicode="&#xff;" horiz-adv-x="526" d="M322 644c0 34 27 62 61 62s62 -28 62 -62s-28 -61 -62 -61s-61 27 -61 61zM141 644c0 34 27 62 61 62s62 -28 62 -62s-28 -61 -62 -61s-61 27 -61 61zM254 -71c-63 -124 -112 -151 -206 -151l1 30c78 0 147 132 158 152l24 55l-213 464h130l146 -324l145 324h60z"/>
    <glyph glyph-name="Ydieresis" unicode="&#x178;" horiz-adv-x="734" d="M474 883c0 36 28 65 64 65c35 0 65 -29 65 -65s-30 -64 -65 -64c-36 0 -64 28 -64 64zM263 883c0 36 29 65 64 65c36 0 65 -29 65 -65s-29 -64 -65 -64c-35 0 -64 28 -64 64zM449 0h-140v271l-244 447h158l202 -369l211 368h70l-257 -431v-286z"/>
    <glyph glyph-name="Acircumflex" unicode="&#xc2;" horiz-adv-x="748" d="M571 791l-18 -22l-165 80l-169 -80l-15 21l184 169zM420 266l-97 261l-107 -261h204zM518 0l-77 209h-248l-86 -209h-75l307 727h53l284 -727h-158z"/>
    <glyph glyph-name="Ecircumflex" unicode="&#xca;" horiz-adv-x="710" d="M554 791l-18 -22l-165 80l-169 -80l-15 21l184 169zM650 62v-62h-521v718h507v-57h-367v-264h223v-61h-223v-274h381z"/>
    <glyph glyph-name="Aacute" unicode="&#xc1;" horiz-adv-x="748" d="M301 789l155 148h127l14 -31l-279 -135zM420 266l-97 261l-107 -261h204zM518 0l-77 209h-248l-86 -209h-75l307 727h53l284 -727h-158z"/>
    <glyph glyph-name="Edieresis" unicode="&#xcb;" horiz-adv-x="710" d="M394 883c0 36 28 65 64 65c35 0 65 -29 65 -65s-30 -64 -65 -64c-36 0 -64 28 -64 64zM183 883c0 36 29 65 64 65c36 0 65 -29 65 -65s-29 -64 -65 -64c-35 0 -64 28 -64 64zM650 62v-62h-521v718h507v-57h-367v-264h223v-61h-223v-274h381z"/>
    <glyph glyph-name="Egrave" unicode="&#xc8;" horiz-adv-x="710" d="M323 937l155 -148l-17 -18l-279 135l14 31h127zM650 62v-62h-521v718h507v-57h-367v-264h223v-61h-223v-274h381z"/>
    <glyph glyph-name="Iacute" unicode="&#xcd;" horiz-adv-x="403" d="M131 789l155 148h127l14 -31l-279 -135zM129 0v718h140v-718h-140z"/>
    <glyph glyph-name="Icircumflex" unicode="&#xce;" horiz-adv-x="403" d="M401 791l-18 -22l-165 80l-169 -80l-15 21l184 169zM129 0v718h140v-718h-140z"/>
    <glyph glyph-name="Idieresis" unicode="&#xcf;" horiz-adv-x="403" d="M258 883c0 36 28 65 64 65c35 0 65 -29 65 -65s-30 -64 -65 -64c-36 0 -64 28 -64 64zM47 883c0 36 29 65 64 65c36 0 65 -29 65 -65s-29 -64 -65 -64c-35 0 -64 28 -64 64zM129 0v718h140v-718h-140z"/>
    <glyph glyph-name="Igrave" unicode="&#xcc;" horiz-adv-x="403" d="M140 937l155 -148l-17 -18l-279 135l14 31h127zM129 0v718h140v-718h-140z"/>
    <glyph glyph-name="Oacute" unicode="&#xd3;" horiz-adv-x="811" d="M327 789l155 148h127l14 -31l-279 -135zM405 739c228 0 359 -166 360 -380c1 -233 -140 -378 -360 -382c-219 3 -360 147 -360 380c0 226 144 382 360 382zM608 358c0 161 -55 321 -203 322s-203 -160 -203 -322c0 -163 54 -322 203 -322c148 0 203 160 203 322z"/>
    <glyph glyph-name="Ocircumflex" unicode="&#xd4;" horiz-adv-x="811" d="M589 791l-18 -22l-165 80l-169 -80l-15 21l184 169zM405 739c228 0 359 -166 360 -380c1 -233 -140 -378 -360 -382c-219 3 -360 147 -360 380c0 226 144 382 360 382zM608 358c0 161 -55 321 -203 322s-203 -160 -203 -322c0 -163 54 -322 203 -322
c148 0 203 160 203 322z"/>
    <glyph glyph-name="Ograve" unicode="&#xd2;" horiz-adv-x="811" d="M348 937l155 -148l-17 -18l-279 135l14 31h127zM405 739c228 0 359 -166 360 -380c1 -233 -140 -378 -360 -382c-219 3 -360 147 -360 380c0 226 144 382 360 382zM608 358c0 161 -55 321 -203 322s-203 -160 -203 -322c0 -163 54 -322 203 -322c148 0 203 160 203 322z
"/>
    <glyph glyph-name="Uacute" unicode="&#xda;" horiz-adv-x="805" d="M383 789l155 148h127l14 -31l-279 -135zM114 286v432h150v-453c0 -118 33 -213 179 -213c114 0 185 72 185 268l-1 398h74v-408c0 -166 -56 -336 -288 -336c-233 0 -299 131 -299 312z"/>
    <glyph glyph-name="Ucircumflex" unicode="&#xdb;" horiz-adv-x="805" d="M636 791l-18 -22l-165 80l-169 -80l-15 21l184 169zM114 286v432h150v-453c0 -118 33 -213 179 -213c114 0 185 72 185 268l-1 398h74v-408c0 -166 -56 -336 -288 -336c-233 0 -299 131 -299 312z"/>
    <glyph glyph-name="Ugrave" unicode="&#xd9;" horiz-adv-x="805" d="M355 937l155 -148l-17 -18l-279 135l14 31h127zM114 286v432h150v-453c0 -118 33 -213 179 -213c114 0 185 72 185 268l-1 398h74v-408c0 -166 -56 -336 -288 -336c-233 0 -299 131 -299 312z"/>
    <glyph glyph-name="dotlessi" unicode="&#x131;" horiz-adv-x="318" d="M34 0l72 70v286l-72 36l72 44l13 8l46 28l61 37v-439l77 -70h-269z"/>
    <glyph glyph-name="circumflex" unicode="&#x2c6;" d="M558 566l-18 -22l-145 80l-149 -80l-15 21l164 169z"/>
    <glyph glyph-name="tilde" unicode="&#x2dc;" d="M240 484c-45 -1 -85 46 -135 46c-45 0 -65 -17 -66 -41l-11 2c3 57 32 119 87 119c50 0 95 -43 134 -43c52 0 65 27 66 41l11 -2c-3 -57 -26 -121 -86 -122z"/>
    <glyph glyph-name="ring" unicode="&#x2da;" d="M115 578c0 55 48 82 109 82s110 -27 110 -82s-49 -81 -110 -81s-109 26 -109 81zM181 579c0 -37 20 -48 44 -48s44 11 44 48s-20 49 -44 49s-44 -12 -44 -49z"/>
    <glyph glyph-name="cedilla" unicode="&#xb8;" d="M197 0l-44 -56c46 -12 90 -50 90 -98c0 -84 -97 -112 -158 -112c-27 0 -52 7 -70 25c46 7 128 10 128 75c0 30 -27 56 -71 65l75 101h50z"/>
    <glyph glyph-name="Euro" unicode="&#x20ac;" horiz-adv-x="673" d="M613 -30l-70 70c-40 -42 -86 -58 -139 -58c-145 0 -246 111 -273 268h-81l10 60h65c-1 9 -1 18 -1 27c0 23 1 46 3 67h-77l10 60h74c31 173 127 270 277 270c49 0 97 -19 136 -57l66 66v-263c-25 50 -33 72 -54 105c-33 52 -73 94 -125 94c-81 0 -138 -84 -157 -215h263
l-10 -60h-258c-1 -12 -1 -24 -1 -36c0 -20 1 -39 2 -58h237l-10 -60h-221c17 -122 64 -213 147 -213c77 0 110 52 142 108c17 30 31 61 45 88v-263z"/>
    <glyph glyph-name="acute.uc" d="M229 550l155 148h127l14 -31l-279 -135z"/>
    <glyph glyph-name="cedilla.uc" d="M197 0l-44 -56c46 -12 94 -50 94 -98c0 -93 -101 -117 -162 -117c-27 0 -52 7 -70 25c64 4 124 21 124 80c0 30 -23 56 -67 65l75 101h50z"/>
    <glyph glyph-name="circumflex.uc" d="M578 552l-18 -22l-165 80l-169 -80l-15 21l184 169z"/>
    <glyph glyph-name="dieresis.uc" d="M342 644c0 36 28 65 64 65c35 0 65 -29 65 -65s-30 -64 -65 -64c-36 0 -64 28 -64 64zM131 644c0 36 29 65 64 65c36 0 65 -29 65 -65s-29 -64 -65 -64c-35 0 -64 28 -64 64z"/>
    <glyph glyph-name="grave.uc" d="M370 698l155 -148l-17 -18l-279 135l14 31h127z"/>
    <glyph glyph-name="ring.uc" d="M115 584c0 58 50 87 113 87c64 0 115 -29 115 -87c0 -59 -51 -87 -115 -87c-63 0 -113 28 -113 87zM184 584c0 -39 20 -51 45 -51c26 0 46 12 46 51c0 40 -20 53 -46 53c-25 0 -45 -13 -45 -53z"/>
    <glyph glyph-name="tilde.uc" d="M270 484c-51 -1 -97 50 -154 50c-51 0 -74 -18 -75 -44l-13 2c3 62 37 129 99 129c57 0 109 -47 153 -47c59 0 74 30 75 45l13 -2c-3 -62 -30 -132 -98 -133z"/>
    </font>
</defs>
</svg>
